<?xml version="1.0" standalone="no"?>
<!DOCTYPE svg PUBLIC "-//W3C//DTD SVG 20010904//EN"
 "http://www.w3.org/TR/2001/REC-SVG-20010904/DTD/svg10.dtd">
<svg version="1.0" xmlns="http://www.w3.org/2000/svg"
 width="1920.000000pt" height="1080.000000pt" viewBox="0 0 1920.000000 1080.000000"
 preserveAspectRatio="xMidYMid meet">

<g transform="translate(0.000000,1080.000000) scale(0.100000,-0.100000)"
fill="#000000" stroke="none">
<path d="M0 5400 l0 -5400 9600 0 9600 0 -1 3833 -1 3832 -534 -1602 -535
-1601 -417 139 c-229 76 -424 142 -432 146 -8 3 -19 7 -25 7 -5 1 -13 28 -17
61 -9 77 -39 167 -92 277 -33 71 -38 88 -26 92 8 2 -14 5 -50 6 -50 2 -58 4
-35 9 29 7 29 8 -15 15 -25 4 -54 10 -64 13 -14 4 -18 1 -13 -10 4 -11 2 -14
-9 -10 -9 3 -13 0 -11 -8 2 -8 2 -11 0 -6 -3 4 -10 4 -16 0 -7 -4 -8 0 -4 11
4 10 10 29 13 43 5 18 9 21 15 11 6 -9 9 -10 9 -1 0 19 68 43 139 50 55 5 66
4 77 -12 14 -18 14 -18 14 0 0 18 1 18 17 2 9 -9 14 -19 12 -22 -3 -3 -45 -9
-93 -14 -95 -9 -123 -20 -58 -22 54 -2 50 -1 104 -23 26 -11 45 -23 42 -27 -8
-13 15 -20 34 -10 11 6 24 6 33 1 10 -7 20 0 36 28 13 20 23 44 23 53 0 24 21
29 113 29 91 0 129 15 180 73 l29 32 -7 -29 c-5 -26 -4 -28 9 -17 8 7 18 21
21 32 10 32 25 11 25 -35 0 -47 -17 -107 -34 -118 -6 -4 -8 -10 -4 -13 10 -10
80 30 109 62 52 56 58 144 14 219 -32 54 -32 64 1 33 70 -65 94 -159 65 -247
-10 -29 -16 -52 -14 -52 3 0 25 16 49 36 24 20 44 31 44 25 0 -13 90 57 127
99 37 41 56 113 51 191 -3 38 -2 69 3 69 13 0 59 -84 61 -113 5 -54 23 -6 22
56 -1 45 -11 87 -37 152 -40 103 -40 130 7 229 51 108 53 249 5 318 l-20 27
39 10 c21 6 48 21 59 33 21 23 49 95 41 104 -3 2 -21 -2 -40 -10 -45 -19 -98
-14 -143 14 -39 24 -82 83 -85 115 -5 44 1 74 15 89 33 32 45 108 26 159 -5
14 -38 60 -73 103 -35 44 -86 117 -113 163 -52 90 -111 170 -159 215 -103 96
-126 114 -176 138 -30 15 -73 29 -95 32 -35 5 -33 3 20 -15 33 -12 83 -37 110
-55 67 -43 174 -150 218 -216 41 -62 138 -229 141 -243 6 -25 33 -74 65 -118
23 -34 35 -63 39 -96 4 -45 3 -47 -37 -69 l-40 -23 6 65 c8 88 -17 153 -107
276 -38 52 -83 115 -99 140 -37 55 -52 73 -57 67 -7 -6 39 -91 72 -133 70 -87
104 -192 104 -314 0 -42 -5 -61 -18 -73 -16 -15 -17 -14 -14 25 5 42 -13 112
-34 138 -7 8 -20 42 -29 75 -19 66 -58 150 -75 160 -12 7 -4 -37 12 -68 26
-50 55 -165 51 -197 -6 -41 -29 -70 -54 -70 -16 0 -17 4 -9 26 6 14 8 30 5 34
-3 5 0 18 7 29 10 16 9 32 -4 83 -21 81 -65 184 -78 181 -5 -2 -12 9 -16 25
-15 70 -34 129 -48 147 -13 19 -14 18 -9 -9 5 -22 3 -27 -7 -21 -9 5 -11 4 -6
-4 4 -6 11 -9 16 -6 4 3 11 -2 14 -11 3 -8 2 -12 -4 -9 -12 8 -13 -8 -1 -21 4
-5 23 -65 42 -134 37 -139 40 -213 12 -258 -21 -32 -66 -72 -73 -65 -3 2 3 9
13 14 12 7 16 18 12 37 -4 22 -4 23 4 7 8 -18 10 -16 25 17 22 52 22 170 -2
206 l-17 26 -6 -44 -6 -45 -3 60 c-4 96 -6 119 -12 135 -3 8 -13 36 -22 61 -9
25 -23 54 -32 65 -18 22 -19 28 17 -71 17 -47 31 -205 18 -205 -3 0 -11 24
-18 53 -16 74 -31 93 -31 42 l-1 -40 -17 24 c-9 13 -22 38 -29 55 -11 29 -12
26 -12 -37 -1 -40 -7 -80 -16 -97 -19 -37 -24 -38 -17 -5 3 16 0 25 -8 25 -8
0 -9 6 -5 18 13 29 16 94 5 87 -5 -3 -10 -15 -10 -26 0 -45 -64 -135 -125
-175 -37 -24 -39 -13 -7 32 16 22 35 57 42 78 7 21 18 50 26 64 8 15 14 34 14
42 0 8 -30 -31 -67 -87 -112 -167 -165 -218 -108 -106 18 37 36 82 40 98 l6
30 -26 -30 c-15 -16 -24 -23 -22 -14 3 9 15 48 27 87 11 39 25 74 30 77 6 3
15 15 20 25 8 16 7 18 -4 14 -15 -6 -92 -110 -102 -140 -11 -31 -87 -159 -96
-162 -4 -2 -8 -9 -8 -16 0 -7 -9 -21 -21 -32 -16 -14 -24 -16 -38 -7 -16 10
-18 9 -14 -10 4 -18 3 -19 -6 -7 -16 22 -15 23 38 81 27 30 48 55 46 57 -4 5
-54 -26 -84 -52 l-24 -21 11 21 c12 23 76 83 116 109 31 21 34 35 5 28 -19 -5
-20 -4 -8 16 8 11 17 21 21 21 5 0 8 5 8 11 0 16 113 169 152 205 18 17 44 38
58 47 35 24 20 21 -47 -8 -77 -34 -153 -114 -178 -188 -19 -58 -55 -103 -116
-149 -20 -15 -56 -47 -80 -73 -34 -36 -49 -45 -66 -40 -13 3 -23 1 -23 -5 0
-5 -4 -10 -10 -10 -5 0 -10 7 -10 15 0 8 -7 15 -15 15 -8 0 -15 -4 -15 -10 0
-5 -5 -10 -11 -10 -5 0 -7 5 -4 10 9 15 -14 12 -30 -4 -8 -7 -11 -17 -7 -21 4
-5 1 -5 -6 -1 -21 12 4 41 49 56 58 20 121 80 176 169 25 42 58 88 71 103 69
75 -54 13 -133 -67 -27 -28 -74 -77 -104 -108 -29 -32 -65 -60 -80 -64 -14 -3
-31 -10 -38 -15 -7 -5 -18 -6 -25 -2 -7 5 -19 9 -25 10 -19 3 -63 41 -56 48 3
3 1 6 -6 6 -6 0 -15 10 -20 23 -11 28 8 35 104 36 124 2 155 20 305 171 78 79
131 124 163 139 61 27 82 23 36 -8 -19 -13 -25 -19 -14 -15 11 4 56 20 100 36
l80 28 -95 -4 c-108 -5 -201 -24 -291 -61 -35 -14 -68 -25 -74 -25 -7 0 -50
-27 -96 -61 -92 -67 -130 -88 -210 -118 -46 -18 -54 -19 -62 -6 -9 17 -43 20
-52 6 -3 -5 -20 -13 -38 -16 -17 -4 -52 -18 -77 -31 -48 -26 -70 -30 -70 -14
0 6 -9 6 -26 0 -16 -7 -23 -7 -19 0 3 5 23 13 43 16 40 6 80 30 69 40 -3 4
-28 1 -54 -5 -30 -8 -49 -9 -51 -3 -2 6 -13 8 -25 5 -32 -8 90 78 132 93 28 9
43 9 75 -2 55 -20 126 -20 164 0 17 9 58 40 90 69 33 28 79 63 103 75 l44 24
-55 -51 c-109 -100 -129 -121 -122 -121 20 0 128 64 212 125 142 103 170 121
225 145 28 13 57 26 66 31 30 14 149 1 230 -26 92 -31 115 -28 36 4 -151 61
-208 60 -382 -9 -71 -28 -155 -60 -185 -72 -67 -26 -142 -73 -195 -122 -72
-67 -136 -86 -208 -60 -22 8 -56 14 -76 14 -35 0 -46 -5 -129 -63 -54 -38
-107 -50 -128 -29 -13 13 -17 13 -25 1 -14 -22 -11 -44 11 -72 25 -31 25 -39
0 -62 -31 -28 -27 -91 10 -148 20 -33 30 -60 30 -88 0 -34 -6 -45 -50 -85 -32
-30 -54 -62 -64 -92 -28 -80 -56 -105 -165 -152 -117 -49 -146 -74 -167 -147
-20 -69 -14 -103 9 -51 20 43 63 76 48 36 -5 -13 -7 -36 -6 -52 4 -36 -7 -64
-37 -96 -31 -34 -48 -74 -48 -116 0 -26 9 -44 35 -72 l36 -37 -3 35 c-3 48 9
95 31 114 18 16 18 15 9 -31 -19 -97 11 -171 87 -220 25 -15 45 -35 45 -45 0
-16 51 -51 140 -95 25 -12 37 -23 28 -23 -10 0 -18 -5 -18 -11 0 -7 9 -9 23
-6 12 4 29 2 37 -3 13 -8 13 -10 0 -10 -9 0 -11 -3 -4 -10 10 -10 54 -2 54 10
0 4 -17 19 -39 34 -21 15 -49 38 -62 52 -21 22 -21 24 -4 18 11 -4 25 -11 30
-15 6 -4 12 -7 15 -7 3 -1 19 -6 35 -13 50 -20 62 -18 30 4 -16 12 -50 40 -75
62 -45 40 -83 65 -97 65 -5 0 -1 -5 7 -10 13 -8 13 -10 -2 -10 -10 0 -22 9
-28 19 -13 25 -13 78 0 86 5 3 10 0 10 -7 0 -8 16 -29 35 -48 31 -31 37 -32
67 -23 18 6 25 11 16 12 -17 1 -48 48 -48 71 0 13 66 -54 74 -75 4 -10 -1 -15
-14 -15 -11 0 -20 -3 -20 -7 1 -14 80 -64 90 -58 5 3 10 1 10 -5 0 -6 4 -9 9
-6 9 6 35 -44 26 -52 -2 -3 -1 -10 4 -16 13 -17 1 -76 -16 -76 -8 0 -11 -5 -8
-11 4 -6 -2 -13 -14 -16 -17 -4 -19 -8 -10 -19 9 -11 16 -11 39 1 33 17 80 71
80 91 0 8 5 14 10 14 12 0 32 -48 25 -60 -2 -4 3 -14 13 -23 16 -14 17 -13 19
21 4 58 9 92 14 97 3 2 25 -16 49 -40 24 -25 39 -45 33 -45 -7 0 -15 4 -18 10
-3 6 -14 10 -22 10 -12 0 -8 -9 15 -31 18 -17 29 -36 25 -42 -3 -5 -1 -7 5 -3
6 3 20 -7 31 -23 24 -33 27 -45 9 -35 -7 3 -1 -4 14 -17 14 -13 32 -35 39 -49
13 -27 15 -28 -90 52 -13 10 -26 16 -29 14 -6 -6 35 -46 78 -76 19 -13 40 -29
47 -35 42 -35 94 -63 163 -87 49 -17 51 -18 15 -12 -45 6 -165 62 -209 96 -16
13 -51 42 -78 66 -27 23 -53 42 -59 42 -14 0 22 -60 43 -71 10 -5 24 -22 32
-37 8 -15 28 -36 45 -47 35 -23 40 -36 11 -28 -11 3 -20 8 -20 12 0 4 -17 15
-37 24 -21 9 -52 30 -70 47 -33 31 -45 37 -40 21 3 -13 -114 -141 -199 -217
l-71 -64 -504 169 c-277 93 -518 175 -535 181 l-32 11 535 1604 534 1603 1602
-534 c881 -294 1603 -534 1604 -534 2 0 3 704 3 1565 l0 1565 -9600 0 -9600 0
0 -5400z m10150 4768 c0 -18 26 -280 49 -508 12 -107 25 -249 31 -315 5 -66
16 -187 25 -270 31 -315 55 -565 66 -685 6 -69 17 -185 25 -258 20 -195 25
-179 -48 -186 -35 -3 -134 -13 -220 -21 -160 -16 -204 -12 -192 18 3 9 -3 13
-17 13 -27 -1 -60 42 -65 84 -3 25 -1 31 11 26 8 -3 15 -1 15 4 0 10 -39 24
-47 17 -2 -3 0 -16 7 -29 11 -22 10 -22 -4 -4 -9 11 -16 28 -16 38 0 10 -4 18
-9 18 -12 0 -103 75 -113 93 -5 10 1 18 19 26 24 11 25 10 13 -4 -8 -9 -9 -19
-4 -23 5 -4 24 -21 43 -37 23 -20 32 -24 28 -12 -8 22 -2 22 35 -4 16 -12 32
-18 35 -15 4 3 1 6 -6 6 -6 0 -16 12 -21 26 -6 15 -20 40 -32 56 l-21 30 42
42 c31 31 43 53 50 91 5 27 7 53 5 57 -11 17 8 29 24 16 14 -11 15 -10 8 12
-4 14 -11 60 -16 102 -5 43 -11 82 -15 88 -14 23 15 8 34 -17 l20 -28 1 31 c0
17 -7 51 -15 74 -18 50 -19 98 -5 136 16 41 -5 128 -41 168 -34 40 -36 46 -9
46 19 0 18 3 -9 40 -16 23 -32 60 -36 83 -10 59 -32 107 -62 140 -32 33 -39
34 -46 5 -4 -12 -9 -20 -12 -17 -3 3 -27 -16 -55 -43 -29 -29 -54 -47 -60 -43
-8 5 9 28 46 64 70 68 84 85 84 105 0 17 -18 30 -40 31 -8 0 -17 11 -18 25 -4
27 -19 50 -33 50 -5 0 -5 -8 0 -17 6 -10 13 -31 16 -47 3 -16 14 -30 25 -33
25 -7 26 -23 3 -24 -17 0 -17 -1 0 -8 15 -6 12 -9 -18 -24 -19 -9 -46 -17 -58
-17 -21 1 -21 1 -2 12 28 15 28 15 21 27 -5 7 -15 7 -31 1 -40 -15 -30 9 10
26 19 8 35 18 35 23 0 18 -103 122 -146 147 -23 14 -76 34 -116 45 -40 11
-106 29 -146 40 -69 20 -75 20 -114 4 -23 -9 -54 -25 -68 -35 -15 -11 -62 -31
-104 -44 -92 -30 -155 -72 -156 -102 0 -30 26 -37 58 -17 l27 17 -24 -27 c-21
-23 -23 -32 -15 -54 12 -35 82 -84 109 -77 11 3 28 8 38 10 9 3 17 1 17 -5 0
-6 -9 -11 -19 -11 -11 0 -23 -5 -26 -10 -7 -11 129 -80 157 -80 10 0 18 -4 18
-9 0 -17 -57 -3 -127 32 -88 45 -171 113 -191 157 l-16 35 -6 -45 -6 -45 -13
33 c-7 17 -16 32 -19 32 -4 0 -16 -19 -27 -43 -11 -23 -43 -68 -72 -99 -39
-43 -56 -71 -68 -115 -9 -32 -22 -75 -30 -95 -11 -33 -11 -38 1 -38 18 0 18
-2 -7 -45 -23 -38 -23 -74 1 -155 11 -39 11 -50 -1 -75 -13 -26 -20 -30 -51
-29 l-37 1 40 -45 c60 -69 66 -112 14 -118 -32 -3 -60 -28 -69 -61 -5 -15 1
-31 24 -56 18 -21 30 -46 30 -62 0 -37 32 -87 80 -125 43 -34 56 -37 82 -13
15 13 18 14 18 2 0 -8 -6 -21 -12 -28 -11 -10 -10 -11 4 -6 22 9 58 69 58 98
1 20 2 21 14 5 12 -17 14 -16 24 5 8 18 10 6 10 -56 -1 -75 -2 -79 -27 -90
-14 -6 -29 -16 -33 -21 -9 -13 -117 -17 -140 -5 -28 15 -37 0 -11 -18 l21 -14
-29 -59 c-16 -32 -33 -62 -39 -65 -5 -3 -10 -14 -10 -25 0 -15 5 -17 34 -10
34 7 83 36 79 45 -7 13 -1 22 26 38 32 19 66 23 56 7 -4 -6 5 -10 20 -10 14 0
42 -7 62 -15 19 -8 44 -15 55 -15 10 0 16 -4 13 -10 -10 -16 7 -12 27 7 19 17
35 13 23 -7 -9 -15 -75 -56 -102 -62 -20 -5 -22 -3 -17 18 15 59 -51 77 -133
39 -32 -15 -53 -29 -46 -32 7 -2 20 0 31 6 12 6 30 7 48 2 l29 -9 -34 -8 c-31
-6 -32 -8 -16 -20 14 -10 15 -17 7 -27 -6 -7 -9 -23 -5 -36 4 -17 -3 -31 -28
-57 -18 -19 -37 -34 -43 -34 -5 0 3 13 19 30 36 37 38 85 6 112 -26 20 -39 22
-60 9 -11 -7 -11 -12 2 -32 14 -21 14 -28 1 -58 -17 -40 -29 -36 -14 4 9 23 8
32 -5 44 -20 20 -37 3 -39 -38 -1 -17 -4 -31 -9 -31 -4 0 -5 -11 -1 -25 5 -20
2 -25 -18 -29 -39 -8 -278 -29 -282 -25 -3 2 -11 78 -20 169 -9 91 -25 250
-36 353 -11 104 -24 243 -30 310 -5 67 -16 190 -25 272 -21 218 -53 546 -70
730 -8 88 -20 211 -27 273 -6 62 -9 114 -7 116 2 3 78 11 169 20 91 9 250 25
353 36 104 11 243 24 310 30 67 5 190 16 272 25 361 35 562 55 730 70 99 9
209 20 245 25 104 12 150 12 150 -2z m-711 -838 c-51 -46 -55 -47 -64 -19 -8
25 -10 23 45 41 66 23 67 22 19 -22z m-246 8 c77 -9 102 -9 118 0 10 7 19 8
19 3 0 -8 -18 -55 -26 -69 -1 -2 -17 6 -36 17 -36 22 -174 55 -189 46 -5 -4
-17 -1 -26 4 -15 9 -13 10 12 11 17 0 74 -5 128 -12z m-392 -26 c-13 -2 -31 3
-39 12 -14 14 -12 14 24 3 33 -10 35 -13 15 -15z m699 3 c-7 -8 -18 -15 -26
-15 -12 0 -96 -131 -89 -138 2 -2 21 6 43 17 31 16 51 19 86 15 39 -6 46 -10
51 -35 8 -35 0 -49 -28 -49 -12 0 -42 -9 -66 -20 -24 -11 -52 -20 -63 -20 -10
0 -16 -4 -13 -10 3 -5 15 -10 26 -10 10 0 19 -6 20 -12 0 -7 4 -4 9 8 9 24 75
58 96 50 8 -3 11 -12 7 -23 -11 -32 -25 -43 -70 -54 -66 -17 -72 -38 -11 -45
22 -3 42 3 61 16 l27 21 10 -28 c6 -15 13 -35 17 -43 3 -8 9 -37 13 -65 7 -44
4 -58 -25 -120 -18 -38 -41 -94 -51 -124 -39 -112 -109 -152 -206 -118 -24 8
-52 18 -63 22 -16 6 -17 5 -5 -4 12 -9 10 -11 -10 -11 -58 0 -200 52 -200 73
0 22 38 16 102 -17 38 -20 75 -36 82 -36 14 0 -35 34 -96 65 -44 23 -46 27
-41 58 3 23 -2 48 -16 77 -11 24 -19 46 -16 48 2 3 -7 24 -21 49 -31 52 -46
150 -32 208 9 38 13 42 56 53 43 12 94 22 211 40 54 8 62 25 21 42 -54 22 -44
31 12 10 29 -11 57 -20 61 -20 4 0 14 15 22 33 16 38 96 127 114 127 11 0 11
-3 1 -15z m-665 -45 l30 -8 -31 -1 c-16 -1 -39 6 -50 15 -19 15 -19 16 1 9 11
-4 34 -11 50 -15z m532 -17 c-3 -10 -5 -4 -5 12 0 17 2 24 5 18 2 -7 2 -21 0
-30z m-235 -85 c-7 -7 -16 -7 -29 0 -17 10 -16 11 7 20 27 10 40 -2 22 -20z
m-232 -20 c0 -13 -23 -5 -28 10 -2 7 2 10 12 6 9 -3 16 -11 16 -16z m-292 -56
c2 -12 17 -33 33 -47 30 -25 31 -45 3 -45 -18 0 -18 -5 3 -36 17 -26 91 -79
99 -71 2 2 -15 17 -38 32 l-43 29 38 8 c34 7 42 5 78 -25 25 -20 38 -38 35
-49 -2 -9 2 -19 10 -22 8 -3 14 -12 14 -20 0 -34 -137 29 -185 85 -41 49 -87
147 -80 170 8 25 29 19 33 -9z m1067 -62 c3 -5 -3 -10 -15 -10 -12 0 -18 5
-15 10 3 6 10 10 15 10 5 0 12 -4 15 -10z m-950 -10 c8 -13 -5 -13 -25 0 -13
8 -13 10 2 10 9 0 20 -4 23 -10z m39 -6 c3 -8 11 -12 16 -9 18 11 40 -15 40
-46 0 -16 -3 -29 -7 -29 -12 0 -53 43 -53 57 0 7 -4 13 -10 13 -5 0 -10 7 -10
15 0 20 16 19 24 -1z m84 -250 c1 -58 -21 -120 -38 -109 -15 9 -12 66 5 99 8
15 15 37 15 47 0 11 4 19 8 19 5 0 9 -25 10 -56z m-5308 -31 c0 -5 85 -710
190 -1568 104 -857 188 -1560 187 -1561 -3 -3 -726 -91 -812 -99 -79 -7 -126
5 -207 55 -54 34 -62 36 -55 17 6 -17 3 -21 -56 -76 -25 -25 -49 -42 -53 -39
-11 11 25 66 67 100 l42 35 -47 58 c-26 31 -59 75 -73 96 -25 38 -25 38 -46
18 -11 -10 -24 -19 -28 -19 -4 0 -9 -7 -12 -14 -7 -18 20 -10 41 11 11 11 17
9 32 -9 17 -22 17 -23 -26 -72 -24 -27 -53 -69 -66 -93 -21 -40 -22 -44 -6
-59 16 -16 19 -16 42 -1 32 21 37 21 29 0 -17 -44 -61 -55 -94 -22 l-20 20 -6
-20 c-3 -11 -16 -27 -29 -36 -21 -14 -28 -14 -59 -1 -21 9 -35 22 -35 32 0 15
4 14 25 -6 20 -19 30 -22 43 -14 25 16 27 60 3 80 -27 24 -122 58 -214 79 -75
16 -76 17 -65 41 7 15 20 24 34 24 13 0 26 5 29 10 4 6 -8 10 -28 10 -33 0
-36 -3 -70 -75 -44 -92 -80 -145 -143 -211 -46 -48 -53 -52 -116 -61 -38 -5
-68 -5 -68 -1 0 4 5 8 11 8 16 0 180 168 226 230 48 66 63 95 31 57 -134 -156
-244 -264 -299 -292 -14 -8 -97 -23 -185 -35 -272 -36 -868 -110 -870 -107 -2
1 -64 506 -139 1122 -75 616 -160 1320 -190 1565 -30 244 -53 445 -52 447 2 1
489 61 1082 133 594 72 1292 158 1550 190 532 65 505 63 505 53z m5510 -362
c0 -12 -20 -25 -27 -18 -7 7 6 27 18 27 5 0 9 -4 9 -9z m76 -35 c39 -39 48
-91 15 -93 -10 -1 -22 7 -27 18 -6 13 -9 0 -9 -45 0 -55 2 -63 14 -53 12 10
13 9 7 -8 -5 -11 -8 -28 -8 -37 0 -10 -12 -28 -29 -42 -20 -17 -27 -30 -22
-43 5 -14 3 -16 -7 -6 -7 6 -18 9 -25 7 -7 -3 -16 -1 -20 5 -3 6 2 11 13 11
10 0 27 9 37 20 11 12 13 20 6 20 -7 0 -9 5 -6 10 4 6 2 17 -5 25 -9 10 -7 16
7 24 17 10 17 12 -6 31 -13 11 -34 20 -48 20 -22 0 -24 3 -22 40 2 22 -2 45
-9 52 -13 13 -16 38 -5 38 3 0 26 -12 50 -26 25 -14 47 -24 49 -21 3 2 -3 18
-13 36 -16 28 -16 33 -3 41 23 15 29 13 66 -24z m508 9 c3 -8 1 -15 -4 -15 -6
0 -10 7 -10 15 0 8 2 15 4 15 2 0 6 -7 10 -15z m50 -51 c8 -20 9 -20 -31 -27
-25 -5 -33 -3 -33 8 0 14 26 34 46 35 7 0 15 -7 18 -16z m-469 -78 c19 -8 35
-17 35 -20 0 -6 -89 20 -98 28 -11 11 29 6 63 -8z m385 -6 c13 -8 12 -12 -7
-25 -13 -9 -22 -24 -22 -33 1 -15 2 -15 6 1 5 18 33 24 33 7 0 -15 -43 -35
-48 -21 -2 6 -7 9 -12 6 -4 -2 -16 5 -26 17 -12 13 -15 22 -8 25 6 2 20 10 30
18 22 17 34 18 54 5z m-211 -18 c5 -10 9 -36 8 -58 -1 -32 2 -38 16 -36 10 2
17 -4 17 -13 0 -9 5 -13 10 -10 6 4 9 24 7 46 l-4 40 23 -22 c22 -21 23 -23 6
-36 -16 -14 -16 -14 1 -9 21 7 22 -2 0 -26 -9 -11 -16 -36 -17 -63 -1 -30 -5
-45 -14 -45 -8 0 -12 6 -9 13 4 11 -40 57 -55 57 -4 0 -19 -11 -34 -23 -20
-18 -25 -29 -20 -43 7 -18 8 -18 27 5 16 20 20 21 25 7 9 -22 -13 -46 -42 -46
-39 0 -67 36 -62 80 3 37 3 38 -15 22 -13 -12 -17 -25 -13 -44 7 -36 -6 -36
-22 1 -23 51 6 81 78 81 22 0 54 -7 70 -15 17 -9 30 -12 30 -8 0 15 -69 63
-89 63 l-21 0 20 20 c11 11 31 20 45 20 l25 0 -20 20 c-11 11 -20 25 -20 30 0
17 39 11 49 -8z m-172 -7 c56 -17 83 -39 66 -56 -7 -7 -20 -2 -41 16 -17 14
-34 26 -37 26 -34 -4 -52 1 -52 14 0 18 2 18 64 0z m-187 -25 c8 -5 11 -10 5
-10 -5 0 -17 5 -25 10 -8 5 -10 10 -5 10 6 0 17 -5 25 -10z m184 -37 c29 -26
33 -48 10 -57 -11 -4 -14 -1 -9 13 4 14 -3 24 -30 39 -37 23 -48 46 -16 34 11
-4 31 -17 45 -29z m-456 -2 c3 -8 -1 -12 -9 -9 -7 2 -15 10 -17 17 -3 8 1 12
9 9 7 -2 15 -10 17 -17z m910 -3 c2 -9 -5 -18 -14 -22 -22 -9 -27 -2 -19 24 7
23 28 22 33 -2z m-624 6 c27 -10 18 -25 -11 -18 -37 9 -53 24 -26 24 12 0 28
-3 37 -6z m520 -27 c4 4 4 0 1 -9 -4 -9 2 -24 13 -34 11 -11 23 -30 26 -44 l7
-25 -19 24 c-15 18 -21 21 -25 10 -4 -10 -6 -9 -6 4 -1 10 -5 15 -11 12 -9 -6
-12 -2 -14 28 -1 6 -5 15 -10 18 -5 4 -5 12 -1 18 5 8 11 9 19 2 7 -6 16 -8
20 -4z m-641 -28 c-17 -17 -36 -28 -42 -25 -13 8 37 55 59 56 9 0 3 -11 -17
-31z m258 21 c21 -12 25 -35 7 -46 -13 -8 -51 33 -42 47 7 11 11 11 35 -1z
m-141 -4 c0 -3 -4 -8 -10 -11 -5 -3 -10 -1 -10 4 0 6 5 11 10 11 6 0 10 -2 10
-4z m-40 -53 c0 -27 -3 -34 -11 -26 -7 7 -9 23 -5 37 9 37 16 32 16 -11z m117
0 c-10 -10 -17 -12 -17 -6 0 7 5 15 10 18 6 4 7 12 4 18 -5 8 -2 8 7 -1 11
-10 10 -15 -4 -29z m414 -38 c10 4 19 2 19 -4 0 -5 -10 -13 -22 -17 -23 -7
-53 20 -41 39 3 5 10 2 15 -7 6 -11 16 -15 29 -11z m52 -36 c-11 -12 -27 -19
-34 -17 -9 3 -3 11 16 21 40 22 43 21 18 -4z m-116 -15 c-3 -3 7 -17 24 -31
16 -14 29 -28 29 -33 0 -9 -91 -21 -103 -13 -5 3 -2 10 6 16 19 16 28 55 13
61 -6 2 0 5 13 5 13 1 22 -2 18 -5z m-710 -42 c-2 -4 -14 -29 -26 -56 -12 -26
-24 -46 -27 -43 -3 3 1 18 9 34 8 15 17 41 21 56 4 15 11 25 16 22 6 -4 9 -9
7 -13z m643 1 c-1 -20 -18 -32 -38 -26 -21 5 -21 6 -5 19 20 15 43 18 43 7z
m-626 -25 c-16 -55 -34 -89 -44 -83 -6 4 0 25 17 56 31 54 38 61 27 27z m541
4 c-3 -3 -11 0 -18 7 -9 10 -8 11 6 5 10 -3 15 -9 12 -12z m-661 -43 c-26 -54
-42 -63 -24 -13 10 25 38 64 46 64 1 0 -9 -23 -22 -51z m-54 -39 c-6 -11 -15
-20 -20 -20 -14 0 -12 6 6 24 21 22 27 20 14 -4z m8271 -516 c-101 -103 -172
-159 -192 -152 -13 4 73 131 114 170 34 32 141 88 167 88 9 0 -31 -48 -89
-106z m-283 -118 c-29 -27 -61 -46 -83 -50 -20 -4 -43 -10 -51 -13 -8 -3 -14
1 -14 11 0 9 6 16 13 17 6 0 46 18 87 39 41 21 80 38 85 39 6 0 -11 -19 -37
-43z m-178 -32 c12 -31 12 -37 1 -30 -23 15 21 -110 51 -141 11 -12 17 -26 14
-31 -3 -5 5 -20 17 -33 13 -13 31 -44 42 -69 10 -25 31 -61 46 -80 22 -30 26
-44 25 -92 -2 -32 -5 -60 -7 -63 -8 -7 -131 97 -166 141 -45 57 -74 160 -79
278 -3 78 -1 104 11 123 20 30 33 29 45 -3z m-78 -31 c-2 -16 -15 -36 -28 -46
-26 -19 -34 -8 -9 13 25 20 17 30 -15 19 -16 -6 -30 -15 -30 -20 0 -5 -7 -9
-15 -9 -7 0 -18 -8 -24 -17 -5 -10 -13 -15 -16 -11 -12 12 29 43 100 77 22 11
40 20 41 20 0 1 -1 -11 -4 -26z m-232 -13 c0 -5 -10 -10 -22 -10 -19 0 -20 2
-8 10 19 13 30 13 30 0z m50 -13 c0 -2 -10 -12 -22 -23 l-23 -19 19 23 c18 21
26 27 26 19z m113 -42 c-3 -9 -8 -14 -10 -11 -3 3 -2 9 2 15 9 16 15 13 8 -4z
m62 -25 c3 -5 -1 -10 -10 -10 -9 0 -13 5 -10 10 3 6 8 10 10 10 2 0 7 -4 10
-10z m208 -64 c26 -21 33 -32 25 -37 -9 -6 -10 -11 -2 -19 8 -8 15 -7 26 4 14
13 18 13 37 -8 12 -12 21 -35 21 -53 0 -36 -19 -93 -30 -93 -10 0 -70 118 -74
143 -1 9 -11 27 -22 39 -41 47 -74 114 -36 72 10 -10 35 -32 55 -48z m912 -65
c-19 -130 -7 -123 -209 -120 -150 3 -177 1 -200 -14 -32 -21 -34 -31 -3 -21
12 5 99 8 192 8 l170 1 0 -25 c0 -25 1 -25 83 -23 l83 1 52 -56 c29 -30 62
-66 75 -78 25 -26 32 -54 7 -34 -8 6 -19 9 -26 5 -6 -4 -14 -3 -18 4 -5 7 -17
8 -39 2 -22 -7 -32 -6 -32 1 0 7 -8 4 -17 -5 -10 -10 -29 -25 -42 -35 -19 -15
-22 -22 -13 -38 13 -25 73 -45 96 -32 10 6 16 5 16 -1 0 -5 -9 -13 -21 -16
-14 -5 -18 -10 -11 -17 7 -7 18 -4 33 11 13 11 26 21 29 21 4 0 12 10 18 23
10 20 11 21 11 2 0 -11 -6 -31 -14 -45 -17 -30 -20 -64 -4 -54 7 4 9 0 5 -12
-3 -11 -8 -43 -11 -73 -5 -52 -30 -117 -58 -151 -6 -8 -30 -30 -52 -49 -22
-19 -79 -71 -126 -115 -96 -92 -172 -146 -204 -146 -22 0 -89 -43 -113 -72 -7
-9 -15 -33 -18 -55 -5 -33 -8 -46 -15 -68 -11 -34 -16 -99 -9 -121 8 -27 8
-27 9 -5 1 15 18 41 46 68 44 42 65 53 65 33 0 -13 -36 -71 -41 -66 -2 3 -2
-26 1 -62 4 -57 2 -70 -14 -84 -10 -10 -25 -18 -33 -18 -7 0 -13 -4 -13 -8 0
-4 -9 -8 -20 -8 -27 0 -41 47 -56 191 -7 72 -7 65 -5 95 1 21 3 22 12 10 8
-11 12 -12 16 -2 2 6 8 10 12 8 4 -3 8 13 8 35 1 21 -2 39 -8 39 -5 0 -9 -4
-9 -9 0 -6 -9 -8 -20 -6 -14 3 -20 -2 -20 -15 0 -10 -5 -22 -11 -25 -6 -4 -8
-13 -5 -21 3 -9 -1 -14 -12 -14 -9 0 -30 -11 -47 -25 -30 -24 -30 -25 -7 -31
28 -8 28 -20 1 -34 -14 -8 -24 -8 -33 -1 -7 6 -16 8 -19 4 -11 -10 -8 40 3 57
9 13 10 13 10 0 1 -33 30 25 30 60 0 20 9 63 20 94 25 73 17 93 -54 144 -42
29 -52 41 -40 46 8 3 12 10 9 16 -3 6 3 24 15 40 l21 30 100 -101 c54 -56 99
-105 99 -110 0 -5 5 -9 10 -9 6 0 10 -8 10 -17 1 -17 1 -17 11 0 8 14 18 17
37 13 23 -5 24 -5 9 5 -10 6 -25 8 -33 5 -8 -3 -14 1 -14 9 0 8 -5 15 -11 15
-13 0 -138 127 -178 181 -26 35 -27 40 -20 114 6 62 13 83 32 104 48 52 54
134 18 261 -32 110 -33 126 -15 183 17 54 53 103 99 133 28 18 207 64 249 64
45 0 108 36 141 80 38 52 45 35 30 -69z m-85 83 c0 -14 -43 -64 -55 -64 -9 0
-6 9 10 26 14 15 25 31 25 35 0 5 5 9 10 9 6 0 10 -3 10 -6z m-1033 -36 c-3
-8 -6 -5 -6 6 -1 11 2 17 5 13 3 -3 4 -12 1 -19z m1157 -50 c-2 -18 -6 -52 -8
-74 -2 -23 -7 -47 -11 -54 -4 -6 -4 -14 -1 -17 10 -10 -14 -32 -29 -27 -11 4
-11 12 -3 37 6 18 14 37 18 42 4 6 11 46 15 90 5 58 10 74 16 58 4 -12 6 -36
3 -55z m57 -89 c-6 -20 -20 -44 -31 -54 -23 -21 -38 -15 -17 6 17 18 46 103
49 143 1 21 3 16 6 -14 2 -25 -1 -61 -7 -81z m-681 101 c0 -5 -5 -10 -11 -10
-5 0 -7 5 -4 10 3 6 8 10 11 10 2 0 4 -4 4 -10z m220 -4 c0 -2 -8 -10 -17 -17
-16 -13 -17 -12 -4 4 13 16 21 21 21 13z m596 -109 c-4 -23 -11 -44 -17 -48
-5 -3 9 -6 32 -7 32 -2 49 4 66 20 l23 21 0 -40 c0 -58 -18 -145 -33 -161 -11
-10 -28 2 -96 65 l-83 77 28 26 c16 14 38 42 48 62 25 46 40 38 32 -15z m222
-117 c-1 -22 -5 -40 -9 -40 -4 0 -6 8 -4 18 2 9 4 27 4 40 1 12 3 22 6 22 3 0
4 -18 3 -40z m0 -85 c-3 -3 -9 2 -12 12 -6 14 -5 15 5 6 7 -7 10 -15 7 -18z
m-251 -112 c2 -6 -3 -13 -12 -16 -10 -5 -15 0 -15 14 0 21 21 22 27 2z m-987
-184 c0 -9 8 -19 19 -22 23 -6 88 -135 100 -199 11 -61 -1 -81 -30 -51 -18 18
-26 19 -45 11 -47 -22 -42 -48 22 -106 33 -29 79 -66 104 -82 25 -16 41 -30
35 -30 -5 0 -4 -4 4 -9 27 -17 25 -101 -3 -163 -14 -32 -32 -58 -40 -58 -7 0
-16 -10 -20 -22 l-6 -23 -16 23 c-18 26 -11 57 11 48 12 -4 15 1 12 27 -2 18
-7 38 -11 45 -5 8 4 26 23 48 34 38 40 30 15 -22 -10 -21 -14 -44 -9 -61 6
-27 7 -27 26 16 10 24 19 56 19 71 0 30 -36 84 -50 75 -12 -7 -101 76 -94 87
3 4 -2 8 -11 8 -9 0 -13 5 -10 10 3 6 -1 10 -10 10 -9 0 -13 5 -10 10 3 6 -3
10 -13 10 -11 0 -25 7 -32 15 -9 11 -9 15 -1 15 7 0 9 5 6 10 -3 6 -3 16 2 23
4 6 9 23 11 37 5 37 18 45 34 21 13 -21 28 -28 28 -13 0 5 -11 22 -25 38 -21
25 -25 39 -25 96 0 56 -3 66 -15 62 -11 -5 -15 1 -16 22 -1 16 -3 40 -4 53 -2
23 -2 24 11 6 8 -10 14 -26 14 -36z m-45 -348 c-3 -5 9 -25 28 -43 18 -18 39
-45 47 -61 8 -17 16 -23 20 -16 9 14 90 -38 90 -58 0 -21 -28 -71 -42 -75 -16
-6 -56 14 -63 30 -5 14 14 16 35 2 9 -5 19 -5 27 2 19 15 16 28 -6 28 -26 0
-36 17 -14 23 14 4 13 5 -4 6 -13 0 -23 -5 -23 -11 -1 -13 -34 40 -35 55 0 4
-3 6 -7 5 -3 -2 -18 8 -33 22 -14 13 -23 18 -20 9 5 -13 -15 -44 -97 -151 -12
-16 -27 -28 -35 -28 -8 0 -12 -4 -8 -9 3 -5 -7 -22 -21 -36 l-27 -27 44 -45
c98 -103 109 -113 119 -113 5 0 10 -4 10 -10 0 -25 -30 -2 -124 94 -67 69
-101 111 -102 127 -1 13 -3 54 -5 90 -3 59 0 72 23 105 14 22 40 47 57 57 l31
18 0 -26 c0 -30 21 -81 47 -112 18 -23 18 -22 18 32 0 48 4 58 34 89 34 35 48
45 36 27z m-14370 -424 c31 -15 115 -80 115 -89 0 -16 -35 -7 -79 21 -25 16
-65 35 -88 42 -37 10 -41 14 -32 31 10 19 39 17 84 -5z m15011 -50 c1 -39 4
-79 8 -88 4 -9 1 -22 -7 -30 -7 -8 -12 -19 -10 -26 6 -16 -17 -27 -30 -14 -8
8 -3 19 17 40 25 26 26 30 11 45 -12 12 -13 16 -3 17 7 0 4 4 -6 8 -27 10 -29
58 -5 93 11 15 21 28 22 28 1 0 3 -33 3 -73z m-371 35 c-3 -3 -11 0 -18 7 -9
10 -8 11 6 5 10 -3 15 -9 12 -12z m-225 -92 c13 -8 13 -10 -2 -10 -9 0 -20 5
-23 10 -8 13 5 13 25 0z m90 -46 c0 -2 -7 -4 -15 -4 -8 0 -15 4 -15 10 0 5 7
7 15 4 8 -4 15 -8 15 -10z m-225 -33 c30 -11 68 -17 94 -16 27 2 52 -2 65 -11
11 -8 28 -14 38 -14 9 0 33 -13 51 -30 19 -16 39 -30 45 -30 6 0 14 -5 18 -12
5 -7 2 -8 -7 -3 -11 6 -12 5 -1 -6 17 -18 16 -69 -2 -69 -28 0 -46 12 -46 32
0 10 4 17 9 13 5 -3 12 -1 16 5 3 5 1 10 -4 10 -6 0 -10 5 -8 10 3 15 -38 35
-108 53 -80 21 -208 66 -219 78 -15 14 4 11 59 -10z m111 -150 c-9 -16 -16
-41 -16 -54 0 -13 -7 -32 -15 -43 -17 -23 -18 -19 -6 23 7 25 6 31 -5 26 -7
-2 -16 -13 -19 -24 -4 -10 -11 -19 -16 -19 -14 0 -12 5 27 52 20 23 42 54 47
67 6 13 13 19 15 13 2 -6 -4 -24 -12 -41z m364 29 c0 -5 -4 -10 -10 -10 -5 0
-10 5 -10 10 0 6 5 10 10 10 6 0 10 -4 10 -10z m-130 -30 c0 -16 5 -30 10 -30
6 0 10 -8 8 -17 -2 -11 2 -17 10 -15 8 1 11 -2 7 -8 -3 -5 0 -20 7 -32 14 -27
12 -69 -6 -83 -7 -5 -21 -29 -31 -52 -21 -48 -35 -47 -35 1 0 17 -5 37 -12 44
-9 9 -9 12 0 12 18 0 3 27 -19 33 -10 3 -19 10 -19 16 0 6 6 8 14 5 8 -3 17 0
21 6 6 9 10 9 17 -1 7 -10 8 -8 3 7 -3 13 1 26 10 34 16 14 20 46 6 54 -5 3
-8 17 -8 31 0 14 3 25 8 25 5 0 9 -13 9 -30z m-100 -6 c0 -8 -5 -12 -10 -9 -6
4 -8 11 -5 16 9 14 15 11 15 -7z m183 -3 c-9 -11 -21 -17 -26 -14 -6 3 -2 12
8 20 27 19 37 16 18 -6z m17 -22 c0 -11 -24 -39 -34 -39 -3 0 0 11 6 25 11 25
28 34 28 14z m85 -70 c29 -93 31 -121 4 -64 -13 28 -19 34 -19 20 l-1 -20 -9
20 c-9 21 -13 125 -5 125 2 0 16 -36 30 -81z m-1900 -1909 c152 -542 278 -989
279 -994 1 -9 -282 -95 -314 -96 -10 0 -30 27 -50 66 -18 36 -47 80 -65 97
-17 18 -39 43 -48 57 -15 21 -20 23 -37 12 -28 -17 -30 -16 -30 17 0 22 -13
41 -56 80 -46 42 -62 51 -93 51 -20 0 -46 7 -57 15 -10 8 -26 15 -35 15 -9 0
-24 10 -33 23 l-16 22 -33 -37 c-24 -26 -37 -34 -47 -28 -17 11 -30 -5 -30
-37 0 -27 -12 -30 -30 -8 -18 22 -25 11 -21 -35 3 -50 -16 -110 -35 -110 -11
0 -12 -4 -4 -19 7 -14 6 -21 -3 -24 -9 -4 -9 -7 1 -18 17 -18 15 -30 -3 -22
-9 3 -26 -3 -38 -13 -21 -18 -21 -18 -7 -1 13 17 12 19 -6 15 -12 -1 -29 4
-39 12 -10 8 -21 14 -24 13 -13 -6 -41 9 -41 21 0 7 -27 25 -60 41 -78 37 -84
45 -66 81 18 34 13 96 -14 166 -10 26 -17 48 -17 48 1 0 43 -13 92 -29 116
-36 194 -55 202 -47 4 3 0 6 -8 6 -9 0 -85 22 -170 50 -151 49 -155 51 -204
104 l-50 53 -77 7 c-59 6 -87 14 -121 36 -55 35 -127 123 -127 156 0 13 2 24
5 24 3 0 23 -18 45 -40 36 -36 81 -56 65 -29 -5 7 4 9 26 6 48 -7 49 -9 10
-16 -19 -3 -36 -11 -38 -18 -3 -7 3 -10 15 -6 11 2 42 -7 68 -21 27 -14 56
-26 64 -26 8 0 -4 9 -26 19 -47 21 -57 32 -48 55 8 20 17 20 82 1 31 -10 64
-28 83 -48 l31 -32 -7 35 c-4 19 -11 42 -15 50 -5 9 -2 18 7 25 14 10 13 13
-1 28 -13 13 -15 21 -6 36 6 11 11 39 13 61 1 22 5 40 9 40 4 0 5 7 2 15 -5
12 2 15 32 15 22 0 47 6 56 13 15 12 15 14 -1 24 -10 6 -18 24 -19 40 0 26 4
30 42 41 24 6 66 9 94 7 42 -4 50 -2 46 10 -4 10 0 15 10 15 16 0 113 -21 184
-40 41 -11 41 0 2 82 -35 71 -75 112 -136 139 -24 10 -50 29 -60 44 -22 34
-49 48 -99 51 -22 1 -66 9 -97 18 -55 15 -60 15 -125 -6 -37 -11 -84 -20 -104
-20 -43 2 -119 -43 -145 -85 -10 -15 -26 -37 -36 -49 -20 -23 -98 -210 -98
-236 0 -9 -4 -19 -9 -22 -5 -4 -8 -52 -6 -109 3 -94 11 -141 50 -297 7 -30 16
-81 19 -113 3 -31 8 -62 12 -68 10 -17 35 -138 44 -214 15 -127 18 -141 35
-174 22 -43 31 -375 12 -431 -12 -33 -15 -35 -140 -71 -70 -20 -129 -34 -131
-30 -4 6 -557 1969 -560 1985 0 6 154 54 344 108 1295 366 1646 464 1652 459
3 -3 131 -449 283 -991z m-10895 590 c1323 -251 1584 -301 1588 -304 2 -2 -42
-242 -97 -532 -278 -1470 -322 -1698 -325 -1702 -6 -5 -575 104 -583 112 -7 7
-18 85 -28 201 -14 159 -22 188 -59 220 -29 25 -86 128 -86 155 0 4 20 15 44
24 24 9 55 27 69 40 14 13 28 22 30 19 3 -2 9 10 15 26 6 17 16 31 21 31 18 0
12 -36 -11 -66 -18 -22 -19 -27 -5 -21 9 4 24 10 34 14 11 4 14 3 9 -5 -15
-24 12 -11 52 26 44 41 53 42 26 4 -24 -34 1 -26 40 14 43 44 69 111 92 238
l19 99 89 49 c108 58 176 112 176 140 0 12 -35 54 -87 106 -48 48 -79 81 -70
73 29 -23 30 -5 2 43 -17 29 -51 62 -93 92 -37 26 -69 49 -71 51 -5 3 -50 257
-51 280 0 7 -3 12 -7 11 -5 -1 -32 3 -60 10 -96 22 -375 44 -505 40 -108 -2
-123 -1 -103 10 48 24 109 29 226 16 62 -7 148 -13 189 -13 68 -1 139 -14 195
-36 13 -5 7 6 -18 32 -28 29 -50 43 -78 47 -22 4 -38 10 -35 15 3 5 -16 13
-42 19 -153 36 -242 58 -247 63 -14 15 -141 -30 -200 -71 -59 -40 -100 -100
-137 -198 -26 -69 -36 -83 -57 -88 -65 -14 -186 -69 -285 -129 -85 -52 -156
-124 -156 -158 0 -52 117 -185 232 -264 l66 -45 -25 -72 c-39 -110 -63 -159
-92 -183 -14 -12 -21 -23 -16 -23 6 0 3 -5 -5 -10 -25 -16 39 -12 99 6 29 8
55 13 58 10 3 -3 -9 -19 -27 -36 l-33 -31 28 7 c39 10 25 -10 -33 -47 -54 -34
-31 -40 37 -9 36 17 41 17 30 4 -7 -9 -22 -20 -34 -25 -14 -7 0 -8 43 -5 34 2
69 10 77 16 12 10 15 9 15 -4 0 -26 -40 -43 -155 -66 -170 -33 -168 -32 -223
-114 -27 -40 -72 -121 -102 -182 -29 -60 -54 -110 -55 -111 -2 -3 -369 68
-373 72 -2 2 26 158 62 347 36 188 113 595 171 903 171 904 187 985 194 985 4
0 292 -54 641 -120z m309 -750 c61 -24 86 -35 176 -75 93 -42 177 -75 192 -75
20 0 166 -71 159 -77 -3 -3 -34 8 -70 25 -78 37 -108 46 -256 72 -63 12 -136
26 -161 31 -123 27 -471 0 -729 -57 -41 -9 -85 -17 -97 -19 -22 -3 -22 -3 -5
20 9 13 33 31 52 41 19 10 46 25 59 33 13 9 30 16 37 17 7 1 26 11 42 23 23
16 32 18 42 8 10 -9 11 -9 6 1 -6 9 1 12 28 9 20 -2 33 0 30 5 -3 5 -13 7 -23
4 -12 -5 -11 -2 3 9 11 8 32 15 46 15 38 0 137 -27 200 -54 44 -19 76 -25 158
-28 56 -2 102 0 102 4 0 4 -36 29 -80 54 -44 26 -80 48 -80 49 0 8 123 -18
169 -35z m-525 -193 c8 -29 27 -64 41 -77 14 -13 42 -50 63 -82 20 -32 43 -60
50 -63 15 -5 -76 126 -95 138 -31 19 -9 26 26 8 58 -30 95 -65 116 -110 16
-36 17 -48 6 -95 l-12 -54 -52 33 c-127 82 -164 139 -184 282 -4 27 10 73 22
73 2 0 11 -24 19 -53z m743 -19 c-3 -8 -6 -5 -6 6 -1 11 2 17 5 13 3 -3 4 -12
1 -19z m-439 -90 c-5 -23 -12 -45 -15 -48 -6 -6 6 70 13 82 11 17 11 6 2 -34z
m272 -2 c30 -3 56 -5 58 -6 1 0 1 -5 0 -12 -2 -6 7 -17 20 -23 33 -18 36 -23
22 -40 -11 -13 -9 -15 14 -15 15 0 37 7 50 15 13 9 33 18 45 20 12 2 36 16 52
30 38 31 47 31 82 -1 21 -20 27 -33 25 -57 -3 -27 -9 -33 -53 -49 -27 -10 -56
-17 -65 -15 -8 1 -16 -7 -18 -17 -2 -11 -10 -26 -18 -34 -19 -18 -18 -36 2
-28 8 3 12 2 9 -4 -6 -9 33 -35 41 -27 3 3 -2 12 -11 20 -9 10 -11 18 -5 22 5
3 10 0 10 -7 1 -7 9 -3 20 11 12 13 26 21 35 17 12 -4 14 -24 12 -104 -2 -111
4 -97 -120 -247 -100 -120 -131 -141 -186 -127 -38 9 -39 8 -55 -25 -9 -18
-16 -38 -16 -44 0 -6 -13 -31 -30 -55 -30 -45 -27 -60 5 -24 10 11 22 20 26
20 17 0 47 -77 53 -140 4 -36 10 -78 13 -95 l5 -30 -36 40 c-19 22 -35 45 -36
50 -1 39 -24 87 -45 97 -14 6 -22 15 -19 19 2 5 -9 3 -25 -2 -17 -6 -40 -26
-51 -44 -11 -18 -40 -59 -65 -90 l-44 -57 -15 24 c-26 39 -78 160 -71 166 8 8
32 12 82 15 80 4 102 53 69 150 -20 61 -32 158 -16 137 9 -12 10 -5 5 29 -6
49 -4 48 55 -6 79 -72 108 -96 135 -109 28 -15 28 -14 -5 12 -143 112 -165
168 -158 384 5 122 9 153 27 187 11 23 26 45 33 50 19 12 81 30 93 27 6 -2 35
-5 65 -8z m9965 -335 c-6 -5 -25 10 -25 20 0 5 6 4 14 -3 8 -7 12 -15 11 -17z
m-30 -52 c11 -33 2 -30 -23 7 -21 33 -22 34 -3 25 11 -6 23 -20 26 -32z m55
20 c7 -11 9 -23 7 -26 -3 -2 -8 5 -12 16 -3 11 -14 22 -23 24 -16 4 -16 5 0 6
10 0 22 -8 28 -20z m70 -33 c0 -1 -8 -2 -18 -2 -10 0 -23 11 -29 23 l-11 23
29 -21 c16 -11 29 -21 29 -23z m-610 -16 c8 -5 11 -10 5 -10 -5 0 -17 5 -25
10 -8 5 -10 10 -5 10 6 0 17 -5 25 -10z m-9686 -46 c3 -8 2 -12 -4 -9 -6 3
-10 10 -10 16 0 14 7 11 14 -7z m10261 5 c11 -17 -1 -21 -15 -4 -8 9 -8 15 -2
15 6 0 14 -5 17 -11z m106 -16 c0 -10 2 -29 4 -43 2 -14 0 -34 -3 -45 -5 -14
-8 -4 -12 30 -4 36 -9 49 -19 47 -12 -3 -12 0 -1 12 17 21 30 20 31 -1z m-491
-35 c0 -6 -6 -5 -15 2 -8 7 -15 14 -15 16 0 2 7 1 15 -2 8 -4 15 -11 15 -16z
m250 -25 c0 -15 -12 -11 -42 15 -10 8 -15 19 -12 23 7 12 54 -20 54 -38z m440
3 c0 -3 -4 -8 -10 -11 -5 -3 -10 -1 -10 4 0 6 5 11 10 11 6 0 10 -2 10 -4z
m-10740 -57 c0 -4 -4 -10 -8 -13 -5 -3 -14 11 -20 32 l-11 37 19 -24 c11 -13
20 -27 20 -32z m9521 34 c12 -16 12 -17 -2 -6 -9 7 -19 10 -22 6 -4 -3 -7 -1
-7 5 0 17 16 15 31 -5z m109 1 c0 -8 -5 -12 -10 -9 -6 4 -8 11 -5 16 9 14 15
11 15 -7z m346 -63 c8 -43 24 -77 53 -110 36 -42 23 -47 -15 -5 -38 42 -58 80
-50 99 2 7 0 18 -5 26 -7 11 -9 11 -9 -3 0 -10 -4 -18 -10 -18 -5 0 -10 9 -10
20 0 11 5 20 10 20 6 0 10 6 10 13 -1 6 -10 1 -21 -13 -13 -15 -19 -33 -16
-48 4 -18 1 -22 -12 -17 -33 14 -89 17 -109 6 -26 -14 -34 -2 -26 38 5 26 9
29 25 21 10 -6 40 -10 68 -10 40 0 52 4 61 20 6 11 8 26 4 33 -4 6 5 1 19 -12
15 -13 30 -40 33 -60z m-224 44 c4 -20 3 -23 -8 -14 -16 13 -19 39 -5 39 5 0
11 -11 13 -25z m-162 0 c0 -13 -4 -14 -20 -5 -11 6 -20 13 -20 15 0 3 9 5 20
5 11 0 20 -7 20 -15z m116 -9 c-3 -11 -6 -26 -6 -33 0 -9 -8 -9 -30 -1 -17 5
-32 14 -35 18 -9 14 23 38 50 38 22 0 26 -4 21 -22z m-9826 -15 c-12 -23 -58
-61 -74 -61 -9 0 71 78 82 80 1 0 -2 -9 -8 -19z m10736 -6 c10 -8 27 -15 37
-15 9 0 17 -5 17 -11 0 -10 -16 -7 -67 12 -13 5 -23 13 -23 19 0 14 13 13 36
-5z m-1031 -5 c3 -6 -1 -7 -9 -4 -18 7 -21 14 -7 14 6 0 13 -4 16 -10z m755
-10 c0 -5 -8 -10 -17 -10 -15 0 -16 2 -3 10 19 12 20 12 20 0z m-742 -15 c28
-9 53 -19 56 -23 6 -9 -120 21 -130 31 -12 11 19 8 74 -8z m82 -5 c8 -5 11
-10 5 -10 -5 0 -17 5 -25 10 -8 5 -10 10 -5 10 6 0 17 -5 25 -10z m491 -10 c6
0 8 -4 5 -9 -8 -13 -39 -7 -44 9 -3 9 1 11 12 7 10 -4 22 -7 27 -7z m549 -11
c0 -6 -4 -7 -10 -4 -5 3 -10 11 -10 16 0 6 5 7 10 4 6 -3 10 -11 10 -16z
m-807 -18 l22 -21 -52 22 c-51 21 -53 21 -73 3 -16 -15 -20 -15 -20 -3 0 25
13 30 59 25 26 -3 52 -13 64 -26z m477 5 c0 -2 3 -11 6 -20 4 -11 0 -16 -12
-16 -16 0 -16 2 -4 10 13 8 13 9 0 14 -8 2 -22 7 -30 9 -8 3 -3 6 13 6 15 1
27 -1 27 -3z m-10376 -79 c11 -38 12 -47 1 -47 -11 0 -35 75 -35 107 0 19 22
-19 34 -60z m426 53 c0 -5 -4 -10 -9 -10 -6 0 -13 5 -16 10 -3 6 1 10 9 10 9
0 16 -4 16 -10z m9716 -63 c-3 -13 -16 -35 -30 -50 -13 -14 -21 -28 -18 -31 3
-3 0 -6 -6 -6 -19 0 -14 29 16 90 22 47 29 54 36 39 5 -10 6 -28 2 -42z m41
31 c-3 -7 -5 -2 -5 12 0 14 2 19 5 13 2 -7 2 -19 0 -25z m-641 -4 c19 -15 49
-30 67 -33 19 -4 33 -14 35 -24 3 -15 -1 -17 -25 -11 -45 11 -102 43 -113 63
-21 39 -11 41 36 5z m426 -36 c12 -17 17 -28 10 -25 -6 4 -21 22 -34 39 -12
17 -17 28 -10 25 6 -4 21 -22 34 -39z m-9932 -14 c0 -8 -4 -12 -10 -9 -5 3
-10 13 -10 21 0 8 5 12 10 9 6 -3 10 -13 10 -21z m95 -22 c-15 -16 -16 -15 -4
12 7 15 15 23 17 16 3 -7 -3 -19 -13 -28z m10075 2 c0 -8 -4 -14 -9 -14 -11 0
-22 26 -14 34 9 9 23 -3 23 -20z m-415 6 c3 -5 -1 -10 -9 -10 -9 0 -16 5 -16
10 0 6 4 10 9 10 6 0 13 -4 16 -10z m-85 -20 c8 -5 11 -10 5 -11 -5 -1 -23 -3
-39 -5 -16 -2 -35 -5 -43 -8 -7 -3 -13 -2 -13 2 0 8 45 29 65 31 6 0 17 -4 25
-9z m430 -10 c-6 -11 -13 -20 -16 -20 -2 0 0 9 6 20 6 11 13 20 16 20 2 0 0
-9 -6 -20z m-10120 0 c0 -5 -4 -10 -10 -10 -5 0 -10 5 -10 10 0 6 5 10 10 10
6 0 10 -4 10 -10z m9810 0 c-13 -8 -12 -10 4 -10 11 0 17 -2 14 -5 -3 -4 -18
-3 -34 1 -25 6 -26 8 -9 15 28 11 43 10 25 -1z m-85 -19 c-6 -5 -21 -12 -35
-15 l-25 -7 25 15 c28 17 50 21 35 7z m62 -7 c-3 -3 -12 -4 -19 -1 -8 3 -5 6
6 6 11 1 17 -2 13 -5z m-212 -14 c8 -13 -25 -67 -59 -99 -34 -32 -33 -21 5 50
32 59 42 68 54 49z m-9414 -172 c7 -13 20 -30 31 -39 15 -14 18 -31 18 -100
l0 -84 -20 25 c-28 35 -90 144 -90 159 0 16 30 61 41 61 4 0 14 -10 20 -22z
m209 -38 c11 -22 20 -59 20 -82 l0 -43 -20 25 c-10 14 -29 46 -41 72 -18 39
-20 50 -9 63 16 19 26 12 50 -35z"/>
<path d="M8604 8034 c-18 -14 -18 -15 4 -4 12 6 22 13 22 15 0 8 -5 6 -26 -11z"/>
<path d="M8450 7925 c0 -16 16 -20 24 -6 3 5 -1 11 -9 15 -9 3 -15 0 -15 -9z"/>
<path d="M9330 9121 c0 -12 28 -22 35 -12 3 5 -2 12 -11 15 -21 8 -24 8 -24
-3z"/>
<path d="M9145 9060 c-16 -7 -13 -9 15 -9 36 -1 100 -33 100 -51 0 -12 -30
-19 -102 -23 -68 -4 -81 -12 -43 -27 20 -8 30 -8 35 0 4 6 14 8 23 4 9 -3 14
-10 11 -15 -9 -14 73 -10 88 4 7 8 19 16 26 18 9 3 5 14 -14 34 l-28 30 32 3
c54 5 38 27 -20 27 -29 0 -64 3 -78 7 -14 3 -34 2 -45 -2z"/>
<path d="M9483 8876 c12 -16 8 -38 -10 -59 -13 -14 -14 -19 -4 -15 8 2 20 13
28 25 12 17 11 23 -4 39 -10 11 -15 15 -10 10z"/>
<path d="M9428 8713 c7 -3 16 -2 19 1 4 3 -2 6 -13 5 -11 0 -14 -3 -6 -6z"/>
<path d="M9476 8704 c-5 -13 -15 -15 -48 -11 -24 3 -51 1 -62 -6 -19 -10 -18
-12 18 -18 44 -7 129 16 123 34 -6 18 -24 19 -31 1z"/>
<path d="M8600 9044 c0 -13 18 -39 24 -34 2 3 -2 14 -10 24 -8 11 -14 16 -14
10z"/>
<path d="M8770 8880 c8 -5 20 -10 25 -10 6 0 3 5 -5 10 -8 5 -19 10 -25 10 -5
0 -3 -5 5 -10z"/>
<path d="M2110 7900 c-59 -14 -128 -47 -239 -115 -131 -79 -161 -101 -234
-173 -114 -110 -225 -285 -243 -379 -3 -18 -11 -33 -16 -33 -5 0 -2 -7 6 -16
9 -8 16 -21 16 -28 0 -19 83 -99 126 -121 22 -11 61 -39 88 -63 53 -46 126
-89 126 -73 0 5 -9 13 -20 16 -23 7 -130 108 -130 122 0 21 13 21 31 0 16 -19
18 -20 19 -4 0 29 40 20 75 -17 34 -36 50 -85 60 -179 5 -53 4 -58 -12 -53
-10 3 -45 12 -78 22 -138 39 -219 108 -300 259 l-27 50 6 -38 c4 -21 7 -66 8
-100 0 -34 3 -54 7 -44 10 27 23 6 46 -71 13 -46 32 -78 72 -124 29 -34 53
-67 53 -74 0 -16 -28 -44 -43 -44 -8 0 -8 -3 1 -12 8 -8 29 5 84 58 40 38 72
75 70 84 -2 13 -2 13 7 0 6 -8 11 -19 11 -23 0 -13 -92 -107 -105 -107 -19 0
-39 -27 -23 -32 9 -3 7 -13 -8 -38 -30 -53 -40 -48 -47 24 -6 66 -15 86 -74
165 -22 29 -33 38 -33 26 0 -10 11 -32 24 -50 34 -44 55 -99 62 -159 5 -55 -8
-93 -25 -67 -6 9 -11 10 -15 2 -4 -6 -2 -11 3 -11 6 0 11 -6 11 -14 0 -8 6
-21 14 -29 8 -7 16 -25 19 -38 3 -19 5 -17 6 9 1 21 -4 35 -14 38 -12 5 -13
10 -4 20 6 8 17 14 23 14 21 0 76 54 96 95 10 22 19 33 20 25 0 -8 -7 -28 -15
-44 -19 -35 -19 -35 3 -29 14 3 23 -8 42 -53 28 -68 30 -126 6 -172 -9 -18
-15 -39 -13 -45 6 -19 34 43 46 103 11 52 10 59 -14 104 -16 30 -25 61 -23 79
3 33 28 51 28 20 0 -10 24 -43 54 -74 53 -54 54 -56 50 -105 l-4 -49 15 30 c8
17 14 40 15 53 0 26 15 29 30 5 8 -13 13 -14 16 -5 5 11 34 18 34 7 0 -15 -24
-53 -31 -49 -5 3 -9 -5 -9 -18 1 -22 2 -22 25 7 l25 30 -9 -30 c-17 -56 -22
-64 -39 -57 -14 5 -15 4 -2 -10 18 -19 25 -16 47 25 11 21 17 55 18 100 l0 68
-20 -25 c-12 -15 -23 -26 -25 -26 -3 0 -5 31 -5 69 0 38 -6 79 -12 92 -22 44
-32 93 -43 209 -7 63 -16 119 -21 125 -14 15 -10 45 6 45 8 0 15 5 15 10 0 6
-4 10 -10 10 -5 0 -10 4 -10 9 0 5 17 0 37 -10 38 -19 104 -18 130 3 10 8 12
-5 12 -58 -1 -38 4 -104 11 -147 11 -76 8 -110 -7 -71 -4 10 -24 43 -45 72
-20 30 -42 69 -48 88 -18 53 -28 40 -18 -23 11 -74 27 -115 43 -109 9 3 11 -2
7 -16 -4 -15 -7 -17 -14 -6 -8 11 -9 10 -6 -1 5 -17 35 -23 45 -9 4 7 1 8 -7
3 -9 -5 -11 -4 -6 4 4 6 12 9 17 5 5 -3 7 -9 4 -14 -3 -4 2 -11 11 -14 9 -3
14 -12 11 -19 -3 -7 4 -24 16 -37 l20 -25 -6 37 c-3 21 -1 38 4 40 7 2 7 32 2
85 -5 45 -5 79 -1 77 4 -3 8 -9 8 -14 0 -5 24 -49 54 -98 30 -49 56 -98 59
-108 4 -15 5 -14 6 5 0 13 -18 56 -42 95 -69 115 -82 152 -82 231 1 109 33
159 150 230 59 36 61 36 137 30 62 -5 82 -3 102 10 23 15 25 15 28 -2 2 -10 1
-30 -3 -45 -10 -35 10 -37 54 -6 l30 22 -6 -37 c-3 -20 -4 -37 -1 -37 11 0 54
107 54 135 0 32 19 102 40 147 11 23 18 27 39 22 14 -4 40 -20 57 -36 32 -30
84 -124 84 -152 0 -9 -32 -37 -71 -63 -81 -54 -99 -85 -99 -172 0 -44 7 -70
34 -121 33 -65 35 -97 7 -115 -6 -3 -11 -14 -11 -23 1 -26 50 38 50 64 0 12
-9 42 -21 68 -30 70 -24 96 29 112 24 7 52 20 61 29 21 18 22 16 61 -102 30
-93 26 -130 -25 -242 -48 -104 -50 -111 -37 -111 5 0 15 19 22 43 8 23 18 48
23 54 5 7 20 38 32 70 13 32 29 58 35 58 19 0 29 27 19 52 -6 15 -5 22 1 18
23 -14 51 -162 40 -212 -6 -23 -3 -43 7 -64 15 -30 14 -32 -10 -57 -35 -35
-43 -23 -16 22 12 20 19 40 15 43 -3 3 -9 -3 -13 -13 -4 -10 -22 -43 -41 -72
-36 -57 -38 -73 -6 -44 10 9 40 33 66 52 45 33 88 98 88 132 0 11 6 15 21 11
19 -5 20 -4 10 15 -21 40 -13 57 38 81 29 13 58 35 69 53 l20 32 12 -45 c7
-24 15 -38 17 -31 3 7 0 27 -6 44 -12 35 -13 93 -2 122 4 11 10 15 13 10 34
-56 48 -90 49 -117 0 -30 1 -31 11 -9 16 33 -17 91 -114 198 -82 91 -113 137
-103 154 3 6 -1 7 -10 4 -11 -5 -18 0 -22 15 -3 11 -10 21 -15 21 -5 0 -6 -4
-3 -10 3 -6 -1 -7 -10 -4 -12 5 -13 9 -4 20 10 12 16 12 38 -2 14 -9 33 -23
41 -33 8 -9 24 -23 35 -31 19 -14 19 -14 4 5 -9 11 -26 40 -38 65 -13 25 -31
54 -40 65 -16 18 -31 48 -52 100 -52 130 -82 172 -183 253 -114 92 -158 115
-216 113 -44 0 -51 3 -70 30 -24 33 -107 78 -189 103 -58 17 -134 19 -191 6z
m844 -589 c-7 -9 -24 13 -24 32 0 21 1 21 13 -3 8 -14 12 -27 11 -29z m-37
-133 c-3 -8 -6 -5 -6 6 -1 11 2 17 5 13 3 -3 4 -12 1 -19z m-70 -70 c29 -32
38 -53 72 -159 34 -111 42 -168 32 -229 l-8 -45 -6 40 c-24 141 -57 261 -91
335 -35 77 -36 80 -27 80 4 0 17 -10 28 -22z m-932 -14 c-9 -9 -19 -13 -23
-10 -3 4 0 11 8 16 24 15 33 11 15 -6z m825 7 c0 -13 -40 -61 -51 -61 -6 0 -3
7 5 16 9 8 16 24 16 35 0 10 7 19 15 19 8 0 15 -4 15 -9z m-1163 -42 c8 -3 9
-9 4 -17 -7 -12 -13 -11 -38 1 -16 9 -35 22 -42 30 -10 13 -7 13 26 2 21 -7
43 -14 50 -16z m1473 10 c0 -6 -4 -7 -10 -4 -5 3 -10 11 -10 16 0 6 5 7 10 4
6 -3 10 -11 10 -16z m11 -71 c13 -24 6 -113 -12 -134 -6 -7 -8 -17 -6 -21 3
-5 -1 -17 -9 -28 -13 -17 -13 -9 -8 70 4 50 8 100 8 113 1 28 12 28 27 0z m68
-49 c23 -51 14 -104 -24 -136 -43 -37 -56 -29 -32 19 14 28 21 62 22 100 0 32
4 58 8 58 4 0 16 -18 26 -41z m-133 -122 c-5 -64 -3 -88 9 -112 l16 -30 -21
21 c-18 17 -24 43 -34 130 -7 60 -11 113 -9 117 3 4 14 -4 25 -18 18 -24 20
-35 14 -108z m-1503 59 c25 -25 66 -54 92 -65 51 -23 62 -40 44 -72 l-12 -23
-21 25 c-12 14 -42 42 -69 63 -26 21 -56 55 -67 77 -11 21 -19 39 -17 39 2 0
24 -20 50 -44z m1364 -68 c-3 -7 -5 -2 -5 12 0 14 2 19 5 13 2 -7 2 -19 0 -25z
m-1275 -93 c7 -14 1 -11 -22 10 -17 17 -36 39 -42 50 -7 14 -1 11 22 -10 17
-16 36 -39 42 -50z m175 -2 c25 -28 34 -44 48 -93 5 -21 -2 -16 -44 25 -47 47
-60 73 -44 88 10 10 12 9 40 -20z m1223 -55 c0 -28 -8 -52 -21 -68 l-21 -25 6
42 c6 45 22 93 31 93 3 0 5 -19 5 -42z m-1247 -21 c21 -30 37 -61 37 -69 0 -9
16 -39 35 -68 55 -81 50 -86 -30 -34 -62 42 -89 79 -104 144 -8 37 -7 48 6 62
9 10 17 18 18 18 1 0 18 -24 38 -53z m-83 -27 c0 -5 -2 -10 -4 -10 -3 0 -8 5
-11 10 -3 6 -1 10 4 10 6 0 11 -4 11 -10z m190 -92 c0 -9 3 -24 7 -34 4 -12 3
-15 -5 -10 -15 9 -52 85 -52 105 1 22 50 -39 50 -61z"/>
<path d="M2110 7142 c0 -10 119 -29 235 -38 55 -4 77 -3 70 4 -5 6 -37 13 -70
16 -33 3 -94 10 -135 15 -93 13 -100 13 -100 3z"/>
<path d="M3120 7125 c7 -9 15 -13 17 -11 7 7 -7 26 -19 26 -6 0 -6 -6 2 -15z"/>
<path d="M1380 7110 c0 -19 3 -21 12 -12 9 9 9 15 0 24 -9 9 -12 7 -12 -12z"/>
<path d="M1400 7074 c0 -19 67 -110 115 -156 36 -35 165 -89 165 -69 0 5 -15
13 -32 16 -18 4 -46 14 -62 22 -39 20 -140 121 -160 161 -15 30 -26 40 -26 26z"/>
<path d="M2235 7070 c-33 -4 -81 -18 -107 -30 l-48 -24 23 -24 c43 -47 99 -61
170 -41 44 12 40 33 -5 24 -30 -7 -30 -7 -10 13 11 11 22 26 24 33 4 12 11 11
42 -3 46 -22 44 -23 39 7 -9 45 -39 55 -128 45z m-25 -48 c0 -13 -12 -22 -22
-16 -10 6 -1 24 13 24 5 0 9 -4 9 -8z m50 4 c0 -3 -4 -8 -10 -11 -5 -3 -10 -1
-10 4 0 6 5 11 10 11 6 0 10 -2 10 -4z m-86 -32 c3 -8 2 -12 -4 -9 -6 3 -10
10 -10 16 0 14 7 11 14 -7z"/>
<path d="M3196 7047 c3 -10 9 -15 12 -12 3 3 0 11 -7 18 -10 9 -11 8 -5 -6z"/>
<path d="M1492 7011 c-10 -6 -8 -10 10 -14 41 -12 54 -8 32 8 -22 17 -25 17
-42 6z"/>
<path d="M3270 6920 c0 -5 5 -10 11 -10 5 0 7 5 4 10 -3 6 -8 10 -11 10 -2 0
-4 -4 -4 -10z"/>
<path d="M1360 6901 c0 -5 5 -13 10 -16 6 -3 10 -2 10 4 0 5 -4 13 -10 16 -5
3 -10 2 -10 -4z"/>
<path d="M3292 6865 c0 -16 2 -22 5 -12 2 9 2 23 0 30 -3 6 -5 -1 -5 -18z"/>
<path d="M1356 6862 c-2 -4 -1 -14 5 -22 7 -12 9 -10 9 8 0 23 -5 28 -14 14z"/>
<path d="M3302 6800 c0 -19 2 -27 5 -17 2 9 2 25 0 35 -3 9 -5 1 -5 -18z"/>
<path d="M1342 6778 c-14 -56 -24 -153 -12 -118 l8 25 1 -27 c1 -16 4 -28 9
-28 4 0 7 43 7 95 0 52 -1 95 -1 95 -1 0 -6 -19 -12 -42z"/>
<path d="M2545 6760 c-3 -5 1 -10 9 -10 9 0 16 5 16 10 0 6 -4 10 -9 10 -6 0
-13 -4 -16 -10z"/>
<path d="M3250 6754 c0 -8 5 -12 10 -9 6 4 8 11 5 16 -9 14 -15 11 -15 -7z"/>
<path d="M3181 6714 c0 -11 3 -14 6 -6 3 7 2 16 -1 19 -3 4 -6 -2 -5 -13z"/>
<path d="M2650 6685 c0 -6 5 -16 12 -23 6 -6 10 -14 7 -16 -10 -10 -89 -23
-94 -16 -7 11 20 31 44 33 26 2 28 17 2 17 -19 0 -46 -22 -93 -77 -14 -17 -32
-33 -40 -36 -10 -4 -10 -7 2 -16 23 -17 36 -13 48 14 6 14 18 25 26 25 15 0
42 -22 48 -40 2 -7 14 -6 36 2 29 11 34 16 31 34 -2 14 26 23 33 11 6 -9 8 -8
8 2 0 8 -7 21 -15 30 -8 9 -24 27 -35 41 -11 14 -19 20 -20 15z"/>
<path d="M2019 6599 c-2 -114 2 -150 21 -195 18 -41 34 -105 47 -183 4 -23 2
-32 -6 -27 -26 16 -62 98 -85 196 -23 101 -24 103 -25 52 -1 -66 -19 -111 -60
-144 -20 -18 -27 -29 -20 -34 8 -4 4 -13 -12 -25 -13 -10 -19 -19 -13 -19 17
0 70 62 97 115 22 42 26 46 27 24 0 -14 8 -43 19 -64 17 -36 17 -41 3 -63 -23
-36 -69 -55 -116 -48 -33 4 -36 3 -17 -5 l24 -10 -33 -34 c-18 -19 -46 -40
-63 -49 l-31 -14 35 -15 c49 -21 91 -73 150 -184 39 -75 45 -109 20 -122 -16
-9 -21 -7 -26 12 -35 121 -155 247 -234 247 -12 0 -21 5 -21 12 0 9 -3 9 -12
0 -7 -7 -21 -13 -33 -13 -16 -1 -17 -2 -2 -6 20 -5 20 -3 3 -73 -13 -57 -39
-114 -55 -124 -12 -8 -71 14 -71 25 0 6 16 35 36 66 46 72 43 95 -15 105 -84
14 -149 91 -161 188 l-6 45 -38 -80 c-21 -44 -45 -97 -52 -119 -16 -43 -19
-137 -5 -164 84 -172 84 -171 72 -200 -7 -16 -13 -39 -15 -53 -7 -61 -19 -109
-27 -109 -5 0 -9 -4 -9 -9 0 -33 205 -14 315 29 67 26 239 114 290 149 68 47
235 208 266 257 13 22 21 54 23 99 2 36 8 71 14 77 14 14 16 -1 2 -22 -5 -8
-6 -17 -2 -20 21 -15 62 -81 62 -99 0 -12 5 -21 10 -21 6 0 10 7 10 15 0 23
12 18 59 -21 23 -20 44 -34 47 -32 2 3 -12 18 -33 34 -71 53 -89 85 -65 113
12 16 32 23 75 27 36 3 57 1 57 -5 0 -6 -4 -11 -10 -11 -5 0 -10 -5 -10 -11 0
-6 12 -9 28 -7 16 2 26 8 24 16 -2 9 4 12 17 7 24 -7 34 26 16 52 -33 48 -23
196 15 207 8 2 3 4 -12 5 -35 1 -190 56 -253 90 -57 30 -72 45 -81 85 -3 16
-15 47 -26 70 l-19 41 5 -38 c8 -57 64 -166 115 -220 24 -26 42 -49 40 -51
-13 -13 -91 40 -125 84 -21 28 -40 46 -42 40 -2 -6 15 -35 37 -64 23 -29 41
-62 41 -73 0 -11 7 -34 16 -52 9 -18 14 -35 11 -38 -3 -3 -26 9 -51 26 -43 30
-116 132 -116 163 0 8 -5 19 -10 24 -6 6 -12 59 -15 118 -4 120 -14 155 -16
55z m283 -221 c23 -18 33 -58 15 -58 -7 0 -23 10 -34 23 -32 36 -36 47 -16 47
11 0 26 -6 35 -12z m71 -100 c6 -58 5 -58 -21 -58 -22 0 -30 8 -44 40 -16 39
-16 40 5 36 12 -2 25 -13 29 -27 4 -13 5 -1 2 28 -6 56 4 91 16 57 4 -10 10
-45 13 -76z m-110 -209 c3 -13 1 -19 -6 -16 -15 5 -22 37 -9 37 5 0 12 -9 15
-21z m-708 -269 l30 -7 -55 -26 c-30 -15 -61 -27 -68 -27 -7 0 -21 -5 -31 -12
-25 -15 -66 2 -73 30 -5 17 3 22 56 35 67 17 96 18 141 7z"/>
<path d="M2682 6551 c-10 -6 -4 -10 19 -15 18 -3 34 -4 37 -1 3 3 -2 5 -11 5
-9 0 -17 5 -17 10 0 12 -10 13 -28 1z"/>
<path d="M1341 6514 c0 -11 3 -14 6 -6 3 7 2 16 -1 19 -3 4 -6 -2 -5 -13z"/>
<path d="M2535 6459 c4 -41 11 -92 16 -114 12 -57 11 -71 -7 -89 -19 -19 -11
-20 40 -2 22 8 33 15 25 18 -12 4 -11 8 2 24 9 10 33 54 55 96 21 42 42 74 46
72 5 -3 8 -1 8 5 0 5 2 16 5 23 4 10 -4 14 -31 14 -20 0 -32 -2 -25 -4 41 -14
-40 -151 -90 -152 -12 0 -18 14 -23 55 -3 31 -4 66 0 79 3 14 -1 27 -11 36
-15 13 -16 8 -10 -61z m73 -139 c-13 -20 -28 -27 -28 -12 0 10 22 32 32 32 5
0 3 -9 -4 -20z"/>
<path d="M2615 6499 c-4 -6 -5 -13 -2 -16 7 -7 27 6 27 18 0 12 -17 12 -25 -2z"/>
<path d="M2111 6474 c0 -11 3 -14 6 -6 3 7 2 16 -1 19 -3 4 -6 -2 -5 -13z"/>
<path d="M2696 6424 c-6 -24 -2 -44 8 -33 9 11 15 59 7 59 -5 0 -12 -12 -15
-26z"/>
<path d="M1701 6370 c0 -14 4 -34 9 -45 8 -18 9 -18 9 5 0 14 -4 34 -9 45 -8
18 -9 18 -9 -5z"/>
<path d="M1790 6346 c0 -9 5 -16 10 -16 6 0 10 4 10 9 0 6 -4 13 -10 16 -5 3
-10 -1 -10 -9z"/>
<path d="M2805 6320 c14 -47 17 -119 5 -155 -15 -46 -57 -95 -81 -95 -10 0
-57 29 -104 65 -46 36 -87 65 -90 65 -8 0 55 -112 91 -161 55 -76 177 -162
245 -174 15 -3 39 -9 53 -15 24 -9 26 -7 25 18 -1 18 -3 21 -6 9 -3 -10 -8
-17 -11 -15 -119 56 -124 61 -94 90 l20 20 28 -20 c45 -32 71 -36 83 -14 15
29 6 161 -14 202 -26 51 -98 151 -130 180 l-28 25 8 -25z m9 -301 c14 -27 16
-41 8 -55 -9 -16 -14 -11 -37 40 -22 48 -24 60 -13 73 11 14 13 14 18 -3 3
-11 14 -35 24 -55z m-87 -8 c-2 -45 -3 -48 -19 -35 -18 17 -32 60 -23 74 4 6
14 10 25 10 15 0 18 -8 17 -49z"/>
<path d="M1566 6253 c9 -76 14 -80 14 -10 0 31 -5 59 -10 62 -7 4 -8 -13 -4
-52z"/>
<path d="M1775 6290 c-3 -5 1 -10 10 -10 9 0 13 5 10 10 -3 6 -8 10 -10 10 -2
0 -7 -4 -10 -10z"/>
<path d="M1825 6260 c-3 -5 3 -10 15 -10 12 0 18 5 15 10 -3 6 -10 10 -15 10
-5 0 -12 -4 -15 -10z"/>
<path d="M1616 6232 c-10 -17 -26 -62 -21 -62 7 0 37 62 32 67 -3 2 -8 0 -11
-5z"/>
<path d="M1825 6200 c3 -5 10 -10 16 -10 5 0 9 5 9 10 0 6 -7 10 -16 10 -8 0
-12 -4 -9 -10z"/>
<path d="M2528 6160 c6 -9 12 -31 12 -48 0 -17 5 -34 10 -37 20 -13 10 54 -12
77 -13 13 -17 17 -10 8z"/>
<path d="M1570 6133 c0 -22 2 -25 10 -13 13 20 13 40 0 40 -5 0 -10 -12 -10
-27z"/>
<path d="M2540 6053 c0 -6 8 -17 18 -24 16 -13 16 -13 2 6 -8 11 -16 22 -17
24 -2 2 -3 0 -3 -6z"/>
<path d="M2330 6035 c0 -8 3 -15 8 -15 4 0 34 -25 67 -56 55 -50 58 -56 43
-68 -10 -7 -15 -16 -11 -19 3 -4 12 -2 20 4 7 6 24 9 38 7 22 -5 25 -2 25 21
-1 22 -2 24 -11 9 -13 -24 -39 -23 -39 0 0 11 9 44 19 75 25 70 10 76 -16 7
l-19 -50 -23 30 c-12 17 -34 35 -47 40 -14 6 -22 14 -19 20 3 5 -3 10 -14 10
-12 0 -21 -7 -21 -15z"/>
<path d="M2516 5978 c-3 -13 -1 -27 4 -32 7 -7 10 1 10 22 0 37 -5 41 -14 10z"/>
<path d="M2266 5860 c-30 -136 -10 -110 30 40 2 8 0 21 -5 28 -5 8 -14 -17
-25 -68z"/>
<path d="M2495 5822 c-30 -6 -47 -23 -36 -36 11 -14 10 -126 -1 -126 -5 0 -2
-13 7 -30 16 -32 55 -59 55 -40 0 7 6 10 13 7 6 -2 17 3 24 12 9 11 12 12 13
3 0 -18 40 4 40 23 0 21 -40 41 -50 24 -6 -9 -9 -7 -13 7 -2 10 -3 7 -2 -8 2
-33 -2 -34 -28 -10 -11 9 -17 11 -13 5 4 -7 5 -13 2 -13 -3 0 -10 9 -16 20
-13 25 6 96 28 105 20 7 35 -7 58 -55 20 -41 34 -52 34 -25 0 9 -17 37 -37 64
-21 27 -42 55 -48 63 -5 8 -19 13 -30 10z"/>
<path d="M2749 5791 c7 -11 15 -21 20 -21 4 0 20 -11 34 -24 31 -29 122 -77
192 -101 28 -10 56 -25 63 -33 16 -21 15 -7 -3 27 -10 21 -24 30 -52 34 -87
13 -124 30 -193 86 -64 53 -75 59 -61 32z"/>
<path d="M2968 5783 c-4 -27 -2 -28 18 -19 13 6 18 14 12 17 -6 4 -14 12 -18
19 -5 7 -9 1 -12 -17z"/>
<path d="M2125 5789 c-4 -6 -5 -12 -2 -15 2 -3 7 2 10 11 7 17 1 20 -8 4z"/>
<path d="M2016 5665 c-58 -63 -117 -114 -172 -150 -46 -30 -86 -55 -89 -55 -2
0 -34 -13 -70 -30 -36 -16 -70 -30 -75 -30 -6 0 -18 -4 -28 -9 -27 -15 -162
-42 -218 -44 -46 -2 -56 2 -110 42 -32 24 -65 51 -71 59 -10 12 -13 13 -13 2
0 -7 19 -31 42 -54 24 -22 42 -44 40 -49 -1 -5 3 -7 10 -4 7 2 29 -1 48 -8 74
-25 306 30 450 108 121 66 199 130 299 245 86 99 54 81 -43 -23z"/>
<path d="M2245 5750 c-3 -5 -1 -10 4 -10 6 0 11 5 11 10 0 6 -2 10 -4 10 -3 0
-8 -4 -11 -10z"/>
<path d="M3016 5745 c4 -8 10 -15 14 -15 5 0 12 -15 16 -32 4 -18 9 -28 11
-21 5 15 -26 83 -38 83 -5 0 -6 -7 -3 -15z"/>
<path d="M1303 5609 c-34 -31 -39 -39 -25 -39 4 0 20 16 35 35 34 43 32 44
-10 4z"/>
<path d="M1219 5533 l-34 -38 38 34 c20 19 37 36 37 38 0 8 -8 0 -41 -34z"/>
<path d="M3102 5540 c0 -14 2 -19 5 -12 2 6 2 18 0 25 -3 6 -5 1 -5 -13z"/>
<path d="M9000 8263 c1 -14 30 -47 36 -41 8 8 -14 48 -26 48 -6 0 -10 -3 -10
-7z"/>
<path d="M9074 8245 c8 -8 18 -15 22 -15 3 0 1 7 -6 15 -7 8 -17 15 -22 15 -5
0 -3 -7 6 -15z"/>
<path d="M9320 8030 c0 -5 7 -7 15 -4 8 4 15 8 15 10 0 2 -7 4 -15 4 -8 0 -15
-4 -15 -10z"/>
<path d="M16366 7084 c-8 -21 -8 -24 3 -24 12 0 22 28 12 35 -5 3 -12 -2 -15
-11z"/>
<path d="M16368 7044 c-14 -22 18 -168 51 -231 21 -41 67 -92 113 -124 44 -32
33 -14 -34 54 -70 69 -93 120 -113 242 -6 39 -14 65 -17 59z"/>
<path d="M16416 6925 c7 -17 44 -41 44 -28 -1 14 -27 43 -38 43 -6 0 -9 -7 -6
-15z"/>
<path d="M17041 6699 c-31 -9 -32 -11 -17 -28 9 -10 16 -32 16 -49 0 -17 5
-34 10 -37 7 -4 9 2 5 17 -4 16 -1 29 8 37 12 9 16 7 22 -16 5 -16 7 -32 6
-37 -1 -5 17 -6 40 -2 43 7 43 7 24 -14 -18 -20 -18 -20 13 -9 17 6 34 19 37
30 9 26 31 24 51 -6 17 -26 32 -20 47 19 8 21 -29 70 -44 60 -5 -3 -9 1 -9 8
0 15 -87 38 -140 37 -19 0 -50 -5 -69 -10z m146 -74 c9 -25 -2 -27 -22 -5 -17
18 -17 20 -1 20 9 0 19 -7 23 -15z"/>
<path d="M17474 6279 c5 -39 -15 -79 -38 -79 -8 0 -19 -7 -27 -16 -11 -13 -9
-14 17 -9 55 13 78 67 53 120 -7 16 -8 12 -5 -16z"/>
<path d="M17330 6205 c7 -8 17 -12 22 -9 6 4 5 10 -3 15 -22 14 -33 10 -19 -6z"/>
<path d="M17224 6065 c47 -44 79 -58 131 -58 71 0 84 11 41 33 -41 20 -71 29
-143 39 l-51 7 22 -21z"/>
<path d="M16840 5920 c0 -5 7 -10 15 -10 8 0 15 -4 15 -10 0 -5 8 -10 17 -10
14 0 14 3 -5 20 -23 22 -42 26 -42 10z"/>
<path d="M16908 5884 c-4 -3 0 -13 8 -21 19 -20 28 -12 11 11 -7 9 -16 14 -19
10z"/>
<path d="M16996 5818 c-10 -6 -14 -13 -10 -17 5 -3 -2 -17 -15 -31 -17 -17
-22 -20 -18 -7 4 9 3 17 -2 17 -8 0 -45 -140 -38 -146 6 -6 23 13 50 54 15 24
34 45 42 49 8 3 12 9 10 14 -3 5 7 11 22 15 15 4 32 9 37 12 13 7 -16 22 -44
22 -18 0 -21 3 -11 9 20 13 -1 21 -23 9z"/>
<path d="M17060 5745 c0 -8 5 -15 10 -15 6 0 10 7 10 15 0 8 -4 15 -10 15 -5
0 -10 -7 -10 -15z"/>
<path d="M17441 6724 c0 -11 3 -14 6 -6 3 7 2 16 -1 19 -3 4 -6 -2 -5 -13z"/>
<path d="M14427 3071 c-23 -25 -35 -46 -31 -55 3 -9 10 -16 14 -16 4 0 10 -18
14 -41 6 -39 8 -41 33 -34 39 9 83 58 76 84 -3 12 -9 24 -14 26 -4 3 -7 11 -5
18 1 7 1 9 -1 5 -3 -5 -12 -8 -22 -8 -9 0 -26 -7 -37 -15 -23 -17 -43 -20 -26
-3 7 7 12 20 12 29 0 10 10 25 22 33 12 9 18 16 12 16 -6 0 -27 -18 -47 -39z"/>
<path d="M14266 3041 c10 -10 21 -17 23 -15 6 6 -20 34 -32 34 -6 0 -2 -8 9
-19z"/>
<path d="M14113 2994 c0 -8 7 -14 16 -14 68 -3 129 -13 148 -25 17 -12 23 -12
23 -3 0 26 -16 33 -80 37 -35 2 -74 7 -85 11 -16 6 -22 4 -22 -6z"/>
<path d="M14180 2946 c-14 -6 -31 -16 -38 -23 -6 -6 -21 -15 -32 -18 -32 -10
-24 -21 40 -53 33 -17 60 -27 60 -23 0 5 12 12 26 15 14 4 38 18 52 31 l26 24
-24 21 c-12 11 -24 20 -24 20 -1 0 -15 4 -31 9 -19 5 -39 4 -55 -3z"/>
<path d="M13649 2864 c17 -36 98 -102 137 -113 21 -6 40 -9 42 -6 2 2 -14 9
-36 15 -23 6 -50 22 -60 35 -11 14 -25 25 -30 25 -6 0 -22 15 -37 33 -15 17
-22 23 -16 11z"/>
<path d="M14491 2830 c0 -15 -6 -31 -13 -38 -9 -9 -9 -12 0 -12 16 0 25 23 19
52 -4 22 -4 22 -6 -2z"/>
<path d="M14551 2834 c0 -11 3 -14 6 -6 3 7 2 16 -1 19 -3 4 -6 -2 -5 -13z"/>
<path d="M14475 2703 c-24 -7 -67 -34 -61 -40 2 -2 12 0 23 5 10 6 41 17 68
25 40 13 44 16 20 15 -16 0 -39 -3 -50 -5z"/>
<path d="M14410 2486 c0 -2 7 -6 15 -10 8 -3 15 -1 15 4 0 6 -7 10 -15 10 -8
0 -15 -2 -15 -4z"/>
<path d="M14893 2385 c-10 -10 -9 -16 2 -25 13 -10 15 -8 15 14 0 30 -1 30
-17 11z"/>
<path d="M14258 2233 c7 -3 16 -2 19 1 4 3 -2 6 -13 5 -11 0 -14 -3 -6 -6z"/>
<path d="M4538 3393 c7 -3 16 -2 19 1 4 3 -2 6 -13 5 -11 0 -14 -3 -6 -6z"/>
<path d="M4588 3393 c7 -3 16 -2 19 1 4 3 -2 6 -13 5 -11 0 -14 -3 -6 -6z"/>
<path d="M4648 3393 c7 -3 16 -2 19 1 4 3 -2 6 -13 5 -11 0 -14 -3 -6 -6z"/>
<path d="M4698 3383 c7 -3 16 -2 19 1 4 3 -2 6 -13 5 -11 0 -14 -3 -6 -6z"/>
<path d="M4748 3373 c6 -2 18 -2 25 0 6 3 1 5 -13 5 -14 0 -19 -2 -12 -5z"/>
<path d="M4798 3363 c6 -2 18 -2 25 0 6 3 1 5 -13 5 -14 0 -19 -2 -12 -5z"/>
<path d="M5220 2766 c0 -2 8 -10 18 -17 15 -13 16 -12 3 4 -13 16 -21 21 -21
13z"/>
<path d="M4017 2774 c-3 -4 5 -36 19 -73 18 -49 36 -77 70 -108 25 -24 53 -43
62 -43 9 0 -5 13 -30 29 -32 20 -54 45 -70 78 -25 48 -43 101 -40 116 2 9 -2
9 -11 1z"/>
<path d="M4538 2636 c30 -21 31 -24 12 -29 -14 -4 -20 -13 -20 -35 0 -31 34
-83 53 -81 8 0 7 3 -1 6 -9 3 -3 12 17 24 30 18 33 18 56 3 19 -12 23 -20 15
-29 -8 -9 -4 -11 15 -7 28 5 30 13 14 43 -10 19 -9 20 11 9 18 -10 25 -9 39 5
15 15 15 16 -1 9 -12 -4 -52 13 -116 50 -101 57 -151 75 -94 32z m96 -52 c23
-22 20 -25 -11 -12 -40 17 -50 28 -26 28 12 0 29 -7 37 -16z m-64 -44 c0 -5
-2 -10 -4 -10 -3 0 -8 5 -11 10 -3 6 -1 10 4 10 6 0 11 -4 11 -10z m30 0 c0
-5 -5 -10 -11 -10 -5 0 -7 5 -4 10 3 6 8 10 11 10 2 0 4 -4 4 -10z"/>
<path d="M4825 2359 c5 -20 1 -32 -16 -48 -25 -23 -19 -27 12 -11 21 12 25 46
9 70 -8 11 -9 8 -5 -11z"/>
<path d="M4735 2300 c3 -5 11 -10 16 -10 6 0 7 5 4 10 -3 6 -11 10 -16 10 -6
0 -7 -4 -4 -10z"/>
<path d="M17144 7372 c-21 -16 -45 -36 -53 -46 -28 -33 -5 -22 52 25 63 53 64
66 1 21z"/>
<path d="M17646 7285 c5 -12 2 -13 -12 -8 -16 6 -15 2 6 -24 14 -18 30 -30 36
-28 6 2 17 -2 23 -8 17 -17 13 6 -6 33 -32 46 -59 66 -47 35z"/>
<path d="M17295 7205 c-27 -62 -33 -91 -12 -60 19 28 49 107 43 112 -3 3 -17
-20 -31 -52z"/>
<path d="M15740 5754 c-15 -38 -13 -40 15 -14 29 27 32 40 10 40 -9 0 -20 -12
-25 -26z"/>
<path d="M15820 5750 c0 -6 7 -10 15 -10 8 0 15 2 15 4 0 2 -7 6 -15 10 -8 3
-15 1 -15 -4z"/>
<path d="M16088 5743 c7 -3 16 -2 19 1 4 3 -2 6 -13 5 -11 0 -14 -3 -6 -6z"/>
<path d="M15870 5720 c0 -5 10 -10 23 -10 18 0 19 2 7 10 -19 13 -30 13 -30 0z"/>
<path d="M16093 5693 c4 -3 -1 -16 -10 -27 -18 -21 -18 -21 4 -2 20 16 23 36
6 36 -4 0 -3 -3 0 -7z"/>
<path d="M15646 5615 c-9 -26 -7 -32 5 -12 6 10 9 21 6 23 -2 3 -7 -2 -11 -11z"/>
<path d="M16048 5623 c7 -3 16 -2 19 1 4 3 -2 6 -13 5 -11 0 -14 -3 -6 -6z"/>
<path d="M16141 5540 c12 -22 22 -40 23 -40 2 0 1 14 -2 30 -2 17 -13 35 -23
41 -18 9 -18 7 2 -31z"/>
<path d="M15545 5460 c-3 -5 -1 -10 4 -10 6 0 11 5 11 10 0 6 -2 10 -4 10 -3
0 -8 -4 -11 -10z"/>
<path d="M15491 5364 c0 -11 3 -14 6 -6 3 7 2 16 -1 19 -3 4 -6 -2 -5 -13z"/>
<path d="M17135 5290 c-3 -5 -1 -10 4 -10 6 0 11 5 11 10 0 6 -2 10 -4 10 -3
0 -8 -4 -11 -10z"/>
<path d="M17155 5180 c3 -5 8 -10 11 -10 2 0 4 5 4 10 0 6 -5 10 -11 10 -5 0
-7 -4 -4 -10z"/>
<path d="M17265 4909 c-4 -6 -5 -12 -2 -15 2 -3 7 2 10 11 7 17 1 20 -8 4z"/>
</g>
</svg>
